<svg xmlns="http://www.w3.org/2000/svg" viewBox="0 0 240 240" role="img" aria-labelledby="title desc">
  <title id="title">Bác sĩ thai kỳ CAMS</title>
  <desc id="desc">Ảnh minh họa bác sĩ nữ mặc áo blouse trắng.</desc>
  <defs>
    <linearGradient id="bg" x1="0" y1="0" x2="1" y2="1"><stop stop-color="#fdf0df"/><stop offset="1" stop-color="#f5c57e"/></linearGradient>
  </defs>
  <rect width="240" height="240" rx="120" fill="url(#bg)"/>
  <circle cx="120" cy="94" r="43" fill="#c98761"/>
  <path d="M75 96c-1-43 20-69 47-69 32 0 51 27 45 70-13-16-29-25-48-25-18 0-31 8-44 24Z" fill="#6e3e31"/>
  <path d="M88 87c9 12 21 17 33 17 15 0 28-5 38-17v26c0 27-17 48-38 48-18 0-33-17-33-48Z" fill="#c98761"/>
  <path d="M51 232c6-47 31-74 69-74s63 27 69 74" fill="#ffffff"/>
  <path d="m81 166 39 23 39-23 23 66H58Z" fill="#8d315d"/>
  <path d="M101 162h38l-19 27Z" fill="#f8e5ee"/>
  <path d="M171 176c-7 9-12 22-14 37" fill="none" stroke="#b2c6df" stroke-width="6" stroke-linecap="round"/>
  <circle cx="155" cy="216" r="8" fill="#b2c6df"/>
</svg>
