<svg xmlns="http://www.w3.org/2000/svg" viewBox="0 0 240 240" role="img" aria-labelledby="title desc">
  <title id="title">Bác sĩ sản phụ khoa CAMS</title>
  <desc id="desc">Ảnh minh họa bác sĩ nữ mặc áo blouse trắng.</desc>
  <defs>
    <linearGradient id="bg" x1="0" y1="0" x2="1" y2="1"><stop stop-color="#fde7ee"/><stop offset="1" stop-color="#f7b5ca"/></linearGradient>
  </defs>
  <rect width="240" height="240" rx="120" fill="url(#bg)"/>
  <circle cx="120" cy="91" r="45" fill="#f2bf9d"/>
  <path d="M74 93c0-43 21-66 48-66 30 0 49 26 47 68-15-15-29-23-51-23-19 0-31 8-44 21Z" fill="#3a2940"/>
  <path d="M88 83c11 12 23 18 39 18 16 0 29-6 39-18v30c0 27-18 48-39 48-22 0-39-21-39-48Z" fill="#f2bf9d"/>
  <path d="M52 232c5-46 30-73 68-73s63 27 68 73" fill="#ffffff"/>
  <path d="M95 159c5 17 14 26 25 26s20-9 25-26l19 15-23 58H99l-23-58Z" fill="#d92b6a"/>
  <path d="M101 164h38l-19 25Z" fill="#8c1643"/>
  <path d="M171 175c-7 9-12 22-14 37" fill="none" stroke="#b2c6df" stroke-width="6" stroke-linecap="round"/>
  <circle cx="155" cy="215" r="8" fill="#b2c6df"/>
</svg>
